<svg preserveAspectRatio="none" width="100%" height="100%" overflow="visible" style="display: block;" viewBox="0 0 138 31.0131" fill="none" xmlns="http://www.w3.org/2000/svg">
<g id="LOGO RECRIADO">
<g id="Faarkey">
<path id="Vector" d="M114.178 31.013C113.709 31.013 113.291 30.9737 112.923 30.8949C112.555 30.8239 112.301 30.753 112.16 30.6821L112.864 28.2238C113.537 28.3971 114.132 28.4601 114.648 28.4129C115.164 28.3656 115.622 28.1332 116.021 27.7155C116.427 27.3058 116.799 26.64 117.135 25.7181L117.652 24.2999L110.987 6.05132H113.991L118.966 20.5178H119.154L124.129 6.05132H127.133L119.482 26.8528C119.138 27.7904 118.712 28.5665 118.203 29.1811C117.695 29.8036 117.104 30.2645 116.431 30.5639C115.766 30.8633 115.015 31.013 114.178 31.013Z" fill="var(--fill-0, white)"/>
<path id="Vector_2" d="M99.9464 24.5835C98.2098 24.5835 96.7118 24.1974 95.4523 23.4253C94.2007 22.6452 93.2346 21.5579 92.554 20.1632C91.8813 18.7607 91.5449 17.1297 91.5449 15.2701C91.5449 13.4106 91.8813 11.7717 92.554 10.3534C93.2346 8.92729 94.1811 7.8163 95.3937 7.02049C96.614 6.21679 98.0377 5.81495 99.6648 5.81495C100.604 5.81495 101.531 5.97254 102.446 6.28771C103.361 6.60288 104.194 7.11504 104.945 7.82418C105.696 8.52544 106.295 9.4552 106.74 10.6135C107.186 11.7717 107.409 13.1979 107.409 14.8919V16.0738H93.5162V13.6628H104.593C104.593 12.6384 104.39 11.7244 103.983 10.9208C103.584 10.1171 103.013 9.48278 102.27 9.0179C101.534 8.55302 100.666 8.32058 99.6648 8.32058C98.5618 8.32058 97.6075 8.59635 96.8017 9.14791C96.0038 9.69158 95.3897 10.4007 94.9595 11.2753C94.5293 12.1499 94.3141 13.0876 94.3141 14.0882V15.6956C94.3141 17.0666 94.5488 18.2288 95.0182 19.1822C95.4954 20.1278 96.1564 20.8487 97.0012 21.3451C97.8461 21.8336 98.8278 22.0779 99.9464 22.0779C100.674 22.0779 101.331 21.9755 101.918 21.7706C102.512 21.5579 103.025 21.2427 103.455 20.8251C103.885 20.3996 104.218 19.8717 104.452 19.2413L107.128 19.9977C106.846 20.9117 106.373 21.7154 105.708 22.4088C105.043 23.0943 104.222 23.6301 103.244 24.0162C102.266 24.3944 101.167 24.5835 99.9464 24.5835Z" fill="var(--fill-0, white)"/>
<path id="Vector_3" d="M76.4182 17.5867L76.3712 14.1355H76.9345L84.8197 6.05133H88.246L79.8445 14.6083H79.6098L76.4182 17.5867ZM73.8367 24.2053V0H76.6059V24.2053H73.8367ZM85.289 24.2053L78.2487 15.2229L80.22 13.2846L88.8092 24.2053H85.289Z" fill="var(--fill-0, white)"/>
<path id="Vector_4" d="M60.2207 24.2053V6.05133H62.8961V8.79333H63.0838C63.4124 7.89509 64.0069 7.16625 64.8674 6.60682C65.7279 6.04739 66.6979 5.76767 67.7774 5.76767C67.9808 5.76767 68.235 5.77161 68.5401 5.77949C68.8452 5.78737 69.076 5.79919 69.2324 5.81495V8.65151C69.1385 8.62787 68.9234 8.59241 68.5871 8.54513C68.2585 8.48998 67.9104 8.4624 67.5427 8.4624C66.6666 8.4624 65.8843 8.64757 65.1959 9.0179C64.5154 9.38034 63.9756 9.88462 63.5766 10.5307C63.1855 11.169 62.9899 11.8978 62.9899 12.7172V24.2053H60.2207Z" fill="var(--fill-0, white)"/>
<path id="Vector_5" d="M45.5839 24.6308C44.4418 24.6308 43.4053 24.4141 42.4744 23.9807C41.5435 23.5395 40.8042 22.9052 40.2567 22.0779C39.7091 21.2427 39.4353 20.2341 39.4353 19.0522C39.4353 18.0122 39.6387 17.1691 40.0455 16.523C40.4522 15.869 40.9959 15.3568 41.6765 14.9865C42.357 14.6162 43.108 14.3404 43.9294 14.1592C44.7586 13.9701 45.5917 13.8203 46.4287 13.71C47.5239 13.5682 48.4118 13.4618 49.0923 13.3909C49.7807 13.3121 50.2814 13.1821 50.5943 13.0009C50.915 12.8197 51.0754 12.5045 51.0754 12.0554V11.9608C51.0754 10.7947 50.7586 9.88856 50.1249 9.24246C49.4991 8.59635 48.5487 8.2733 47.2736 8.2733C45.9515 8.2733 44.915 8.56484 44.1641 9.14791C43.4131 9.73098 42.8851 10.3534 42.58 11.0153L39.9516 10.0698C40.4209 8.96668 41.0467 8.10783 41.829 7.49325C42.6191 6.87078 43.4796 6.43742 44.4105 6.19316C45.3492 5.94102 46.2723 5.81495 47.1797 5.81495C47.7586 5.81495 48.4235 5.88586 49.1745 6.02769C49.9333 6.16164 50.6647 6.44136 51.3687 6.86684C52.0806 7.29232 52.6712 7.93449 53.1406 8.79334C53.6099 9.65218 53.8446 10.8026 53.8446 12.2445V24.2053H51.0754V21.747H50.9346C50.7468 22.1409 50.4339 22.5625 49.9959 23.0116C49.5578 23.4607 48.975 23.8429 48.2475 24.158C47.52 24.4732 46.6321 24.6308 45.5839 24.6308ZM46.0063 22.1252C47.1015 22.1252 48.0245 21.9085 48.7755 21.4751C49.5343 21.0418 50.1054 20.4823 50.4887 19.7968C50.8798 19.1113 51.0754 18.3904 51.0754 17.6339V15.081C50.958 15.2229 50.6999 15.3529 50.3009 15.4711C49.9098 15.5814 49.4561 15.6799 48.9398 15.7665C48.4313 15.8453 47.9346 15.9163 47.4496 15.9793C46.9724 16.0344 46.5852 16.0817 46.2879 16.1211C45.5682 16.2157 44.8955 16.3693 44.2697 16.5821C43.6517 16.7869 43.151 17.0982 42.7677 17.5158C42.3922 17.9255 42.2045 18.4849 42.2045 19.1941C42.2045 20.1632 42.5604 20.896 43.2723 21.3924C43.992 21.8809 44.9033 22.1252 46.0063 22.1252Z" fill="var(--fill-0, white)"/>
<path id="Vector_6" d="M25.6433 24.6308C24.5012 24.6308 23.4647 24.4141 22.5338 23.9807C21.6029 23.5395 20.8637 22.9052 20.3161 22.0779C19.7685 21.2427 19.4947 20.2341 19.4947 19.0522C19.4947 18.0122 19.6981 17.1691 20.1049 16.523C20.5116 15.869 21.0553 15.3568 21.7359 14.9865C22.4165 14.6162 23.1674 14.3404 23.9888 14.1592C24.818 13.9701 25.6511 13.8203 26.4881 13.71C27.5833 13.5682 28.4712 13.4618 29.1518 13.3909C29.8401 13.3121 30.3408 13.1821 30.6537 13.0009C30.9744 12.8197 31.1348 12.5045 31.1348 12.0554V11.9608C31.1348 10.7947 30.818 9.88856 30.1843 9.24246C29.5585 8.59635 28.6081 8.2733 27.333 8.2733C26.011 8.2733 24.9745 8.56484 24.2235 9.14791C23.4725 9.73098 22.9445 10.3534 22.6394 11.0153L20.011 10.0698C20.4804 8.96668 21.1062 8.10783 21.8884 7.49325C22.6785 6.87078 23.539 6.43742 24.4699 6.19316C25.4086 5.94102 26.3317 5.81495 27.2391 5.81495C27.818 5.81495 28.4829 5.88586 29.2339 6.02769C29.9927 6.16164 30.7241 6.44136 31.4281 6.86684C32.14 7.29232 32.7306 7.93449 33.2 8.79334C33.6693 9.65218 33.904 10.8026 33.904 12.2445V24.2053H31.1348V21.747H30.994C30.8062 22.1409 30.4933 22.5625 30.0553 23.0116C29.6172 23.4607 29.0344 23.8429 28.3069 24.158C27.5794 24.4732 26.6915 24.6308 25.6433 24.6308ZM26.0657 22.1252C27.1609 22.1252 28.084 21.9085 28.8349 21.4751C29.5937 21.0418 30.1648 20.4823 30.5481 19.7968C30.9392 19.1113 31.1348 18.3904 31.1348 17.6339V15.081C31.0175 15.2229 30.7593 15.3529 30.3604 15.4711C29.9692 15.5814 29.5155 15.6799 28.9992 15.7665C28.4907 15.8453 27.994 15.9163 27.509 15.9793C27.0318 16.0344 26.6446 16.0817 26.3473 16.1211C25.6277 16.2157 24.9549 16.3693 24.3291 16.5821C23.7111 16.7869 23.2105 17.0982 22.8271 17.5158C22.4517 17.9255 22.2639 18.4849 22.2639 19.1941C22.2639 20.1632 22.6198 20.896 23.3317 21.3924C24.0514 21.8809 24.9627 22.1252 26.0657 22.1252Z" fill="var(--fill-0, white)"/>
<path id="Vector_7" d="M0 24.2053V0H14.4093V2.60018H2.91002V10.7789H13.3298V13.3791H2.91002V24.2053H0Z" fill="var(--fill-0, white)"/>
</g>
<path id="&#194;&#174;" d="M133.101 5.38431V1.95877H134.65C134.85 1.95877 135.031 2.0021 135.194 2.08874C135.356 2.17229 135.484 2.29297 135.576 2.45079C135.671 2.60551 135.719 2.78963 135.719 3.00314C135.719 3.21975 135.671 3.41006 135.576 3.57406C135.481 3.73498 135.35 3.86185 135.184 3.95468C135.022 4.04442 134.837 4.08929 134.631 4.08929H133.35V3.70403H134.548C134.76 3.70403 134.929 3.64214 135.055 3.51837C135.184 3.39459 135.249 3.22285 135.249 3.00314C135.249 2.78034 135.184 2.61479 135.055 2.50649C134.929 2.39818 134.762 2.34403 134.553 2.34403H133.548V5.38431H133.101ZM135.018 3.82007L135.857 5.38431H135.359L134.535 3.82007H135.018ZM134.313 7.42663C133.803 7.42663 133.326 7.3307 132.88 7.13885C132.435 6.94699 132.043 6.68087 131.705 6.34048C131.367 6.0001 131.103 5.60556 130.913 5.15687C130.722 4.70817 130.627 4.22699 130.627 3.71331C130.627 3.19964 130.722 2.71846 130.913 2.26976C131.103 1.82107 131.367 1.42653 131.705 1.08614C132.043 0.745758 132.435 0.479637 132.88 0.287782C133.326 0.0959274 133.803 0 134.313 0C134.823 0 135.301 0.0959274 135.747 0.287782C136.192 0.479637 136.584 0.745758 136.922 1.08614C137.26 1.42653 137.524 1.82107 137.714 2.26976C137.905 2.71846 138 3.19964 138 3.71331C138 4.22699 137.905 4.70817 137.714 5.15687C137.524 5.60556 137.26 6.0001 136.922 6.34048C136.584 6.68087 136.192 6.94699 135.747 7.13885C135.301 7.3307 134.823 7.42663 134.313 7.42663ZM134.313 6.92997C134.903 6.92997 135.439 6.78608 135.922 6.4983C136.407 6.21052 136.793 5.82371 137.078 5.33789C137.364 4.84897 137.507 4.30744 137.507 3.71331C137.507 3.11918 137.363 2.57921 137.074 2.09338C136.788 1.60756 136.404 1.22075 135.922 0.932971C135.439 0.642094 134.903 0.496656 134.313 0.496656C133.724 0.496656 133.186 0.640547 132.701 0.928329C132.218 1.21611 131.834 1.60446 131.548 2.09338C131.263 2.57921 131.12 3.11918 131.12 3.71331C131.12 4.30435 131.263 4.84433 131.548 5.33325C131.834 5.82217 132.218 6.21052 132.701 6.4983C133.186 6.78608 133.724 6.92997 134.313 6.92997Z" fill="var(--fill-0, white)"/>
</g>
</svg>
