<svg preserveAspectRatio="none" width="100%" height="100%" overflow="visible" style="display: block;" viewBox="0 0 6149.68 4877.12" fill="none" xmlns="http://www.w3.org/2000/svg">
<g id="ondas" style="mix-blend-mode:screen" opacity="0.44">
<path id="Vector" d="M2437.8 377.199C1841.79 891.213 1675.78 1805.53 1021.42 2242.85C771.636 2409.78 464.612 2495.06 254.971 2710.26C33.6153 2937.49 -40.2048 3284.12 23.5189 3594.87C87.2426 3905.64 275.178 4181.09 509.941 4394.45C936.893 4782.47 1556.8 4979.61 2111.23 4820.1C2540.62 4696.54 2887.42 4382.4 3189.41 4053.1C3491.4 3723.79 3770.23 3365.29 4135.42 3107.85C4607.33 2775.18 5188.92 2635.59 5685.62 2341.21C5836.4 2251.84 5983.89 2142.78 6065.7 1987.77C6146.15 1835.31 6154.11 1655.39 6145.4 1483.21C6134.15 1260.76 6092.31 1026.87 5946.71 858.318C5795.87 683.714 5562.03 610.224 5340.81 544.642C5034.93 453.97 4719.83 377.379 4420.11 267.967C4241.76 202.865 4081.03 102.081 3896.29 54.0414C3380.94 -80.0121 2849.67 47.705 2437.8 377.199Z" stroke="var(--stroke-0, white)" stroke-opacity="0.42" stroke-width="3" stroke-miterlimit="10"/>
<path id="Vector_2" d="M2515.19 627.629C1991.59 1079.19 1845.74 1882.44 1270.9 2266.62C1051.46 2413.27 781.733 2488.2 597.557 2677.26C403.091 2876.89 338.244 3181.4 394.223 3454.41C450.202 3727.41 615.309 3969.41 821.549 4156.85C1196.63 4497.73 1741.21 4670.93 2228.29 4530.79C2605.51 4422.25 2910.19 4146.28 3175.49 3856.97C3440.8 3567.67 3685.75 3252.74 4006.58 3026.57C4421.16 2734.32 4932.09 2611.68 5368.45 2353.07C5500.91 2274.56 5630.49 2178.75 5702.36 2042.57C5773.05 1908.64 5780.03 1750.55 5772.38 1599.3C5762.49 1403.88 5725.75 1198.4 5597.82 1050.33C5465.31 896.935 5259.88 832.372 5065.53 774.76C4796.81 695.098 4520 627.824 4256.68 531.699C4100 474.507 3958.8 385.977 3796.51 343.764C3343.76 225.978 2877.02 338.161 2515.19 627.629Z" stroke="var(--stroke-0, white)" stroke-opacity="0.42" stroke-miterlimit="10"/>
<path id="Vector_3" d="M2613.75 946.563C2175.57 1310.57 2062.21 1980.39 1588.59 2296.91C1407.8 2417.74 1185.57 2479.47 1033.83 2635.23C873.603 2799.7 820.171 3050.58 866.308 3275.51C912.431 3500.44 1048.46 3699.81 1218.38 3854.23C1527.41 4135.09 1976.08 4277.78 2377.39 4162.3C2688.17 4072.88 2939.2 3845.51 3157.77 3607.16C3376.34 3368.8 3578.16 3109.32 3842.49 2922.99C4184.06 2682.2 4605.01 2581.17 4964.52 2368.09C5073.65 2303.41 5180.42 2224.48 5239.62 2112.28C5297.86 2001.93 5303.62 1871.7 5297.31 1747.08C5289.16 1586.08 5258.89 1416.78 5153.49 1294.78C5044.32 1168.4 4875.06 1115.22 4714.94 1067.75C4493.54 1002.11 4265.48 946.683 4048.54 867.5C3919.45 820.374 3803.11 747.437 3669.4 712.654C3296.41 615.631 2907.42 702.603 2613.75 946.563Z" stroke="var(--stroke-0, white)" stroke-opacity="0.42" stroke-miterlimit="10"/>
<path id="Vector_4" d="M2712.32 1265.48C2367.8 1551.68 2278.67 2078.33 1906.29 2327.18C1764.15 2422.19 1589.41 2470.72 1470.11 2593.18C1344.15 2722.5 1302.13 2919.75 1338.4 3096.6C1374.66 3273.45 1481.6 3430.22 1615.21 3551.63C1858.18 3772.44 2210.95 3884.64 2526.47 3793.85C2770.83 3723.53 2968.19 3544.77 3140.04 3357.37C3311.9 3169.96 3470.58 2965.95 3678.39 2819.45C3946.95 2630.12 4277.91 2550.7 4560.58 2383.16C4646.38 2332.31 4730.33 2270.25 4776.87 2182.03C4822.66 2095.27 4827.19 1992.87 4822.23 1894.9C4815.83 1768.31 4792.02 1635.2 4709.16 1539.28C4623.33 1439.91 4490.25 1398.1 4364.36 1360.77C4190.28 1309.16 4010.97 1265.59 3840.4 1203.32C3738.91 1166.27 3647.43 1108.91 3542.3 1081.58C3249.04 1005.28 2943.2 1073.67 2712.32 1265.48Z" stroke="var(--stroke-0, white)" stroke-opacity="0.42" stroke-miterlimit="10"/>
<path id="Vector_5" d="M2810.87 1584.4C2560.02 1792.8 2495.11 2176.26 2223.97 2357.46C2120.46 2426.63 1993.23 2461.97 1906.37 2551.15C1814.64 2645.31 1784.06 2788.93 1810.47 2917.7C1836.87 3046.47 1914.74 3160.61 2012.02 3249.02C2188.93 3409.81 2445.8 3491.5 2675.54 3425.39C2853.47 3374.19 2997.17 3244.03 3122.31 3107.57C3247.46 2971.12 3362.99 2822.56 3514.32 2715.89C3709.86 2578.03 3950.86 2520.2 4156.68 2398.22C4219.16 2361.19 4280.28 2315.99 4314.18 2251.76C4347.52 2188.59 4350.82 2114.02 4347.21 2042.69C4342.55 1950.52 4325.2 1853.6 4264.88 1783.75C4202.38 1711.4 4105.48 1680.94 4013.82 1653.77C3887.07 1616.2 3756.5 1584.46 3632.3 1539.13C3558.39 1512.15 3491.8 1470.39 3415.24 1450.48C3201.69 1394.95 2978.99 1444.74 2810.87 1584.4Z" stroke="var(--stroke-0, white)" stroke-opacity="0.42" stroke-miterlimit="10"/>
<path id="Vector_6" d="M2909.44 1903.32C2752.24 2033.9 2711.57 2274.19 2541.67 2387.75C2476.81 2431.1 2397.09 2453.24 2342.66 2509.11C2285.19 2568.12 2266.01 2658.12 2282.57 2738.81C2299.12 2819.51 2347.91 2891.02 2408.86 2946.43C2519.72 3047.18 2680.68 3098.37 2824.65 3056.95C2936.15 3024.86 3026.19 2943.3 3104.61 2857.8C3183.01 2772.29 3255.42 2679.21 3350.25 2612.35C3472.78 2525.97 3623.79 2489.73 3752.77 2413.29C3791.92 2390.08 3830.21 2361.77 3851.45 2321.52C3872.35 2281.93 3874.42 2235.21 3872.15 2190.51C3869.23 2132.75 3858.37 2072.02 3820.56 2028.25C3781.39 1982.91 3720.68 1963.84 3663.23 1946.8C3583.81 1923.26 3501.99 1903.38 3424.17 1874.96C3377.85 1858.05 3336.12 1831.89 3288.15 1819.42C3154.33 1784.6 3014.77 1815.81 2909.44 1903.32Z" stroke="var(--stroke-0, white)" stroke-opacity="0.42" stroke-miterlimit="10"/>
<path id="Vector_7" d="M3007.99 2222.24C2945.45 2276.18 2928.03 2372.12 2859.35 2418.02C2833.13 2435.53 2800.91 2444.49 2778.9 2467.08C2755.67 2490.93 2747.93 2527.3 2754.62 2559.91C2761.3 2592.52 2781.03 2621.43 2805.67 2643.83C2850.48 2684.54 2915.53 2705.24 2973.72 2688.5C3018.77 2675.52 3055.18 2642.57 3086.86 2608.01C3118.55 2573.45 3147.81 2535.82 3186.14 2508.81C3235.67 2473.9 3296.69 2459.25 3348.82 2428.36C3364.64 2418.98 3380.13 2407.54 3388.71 2391.27C3397.16 2375.27 3397.99 2356.38 3397.07 2338.31C3395.89 2314.98 3391.5 2290.42 3376.22 2272.73C3360.39 2254.41 3335.85 2246.7 3312.63 2239.82C3280.53 2230.31 3247.47 2222.27 3216.01 2210.79C3197.3 2203.96 3180.44 2193.39 3161.04 2188.34C3106.97 2174.26 3051.22 2187.66 3007.99 2222.24Z" stroke="var(--stroke-0, white)" stroke-opacity="0.42" stroke-miterlimit="10"/>
</g>
</svg>
